
<svg xmlns="http://www.w3.org/2000/svg" width="100" height="100" viewBox="0 0 100 100">
  <circle cx="50" cy="50" r="45" fill="#03A9F4" />
  <path d="M50 25v-5M75 50h5M50 75v5M25 50h-5" stroke="#FFF" stroke-width="4" stroke-linecap="round" />
  <circle cx="50" cy="50" r="35" fill="none" stroke="#FFF" stroke-width="4" />
  <path d="M50 35v15l10 10" stroke="#FFF" stroke-width="4" stroke-linecap="round" stroke-linejoin="round" />
  <path d="M65 33a3 3 0 100-6 3 3 0 000 6zm-30 0a3 3 0 100-6 3 3 0 000 6z" fill="#FFF" />
  <path d="M50 65v-5" stroke="#FFF" stroke-width="4" stroke-linecap="round" />
  <path d="M55 75a5 5 0 11-10 0 5 5 0 0110 0z" fill="#FFF" />
</svg>

