<?xml version="1.0" encoding="UTF-8" standalone="no"?>
<svg xmlns="http://www.w3.org/2000/svg" width="256" height="256" viewBox="0 0 67.733 67.733">
  <rect style="fill:#41b883;stroke-width:0.264583" width="67.733" height="67.733" x="0" y="0" rx="5.08" ry="5.08"/>
  <g transform="translate(0,-229.26667)">
    <path style="fill:#ffffff;stroke-width:0.264583" d="m 33.866667,246.19792 c -9.525,0 -17.197916,7.67292 -17.197916,17.19792 0,9.525 7.672916,17.19791 17.197916,17.19791 9.525,0 17.197917,-7.67291 17.197917,-17.19791 0,-9.525 -7.672917,-17.19792 -17.197917,-17.19792 z m 0,5.02708 c 6.747917,0 12.170833,5.42292 12.170833,12.17084 0,6.74791 -5.422916,12.17083 -12.170833,12.17083 -6.747917,0 -12.170834,-5.42292 -12.170834,-12.17083 0,-6.74792 5.422917,-12.17084 12.170834,-12.17084 z"/>
    <path style="fill:#ffffff;stroke-width:0.264583" d="m 27.516667,243.41667 h 12.7 v 5.55625 l -6.35,-2.64583 -6.35,2.64583 z"/>
    <path style="fill:#ffffff;stroke-width:0.264583" d="m 27.516667,282.97708 h 12.7 v -5.55625 l -6.35,2.64584 -6.35,-2.64584 z"/>
    <path style="fill:#ffffff;stroke-width:0.264583" d="m 12.964583,258.76875 v 6.35 h 4.7625 l -2.116666,-3.175 z"/>
    <path style="fill:#ffffff;stroke-width:0.264583" d="m 54.768749,258.76875 v 6.35 h -4.7625 l 2.116667,-3.175 z"/>
    <circle style="fill:#ffffff;stroke-width:0.264583" cx="33.866665" cy="263.39584" r="3.43958"/>
  </g>
</svg>